I'm aware that there already is some torrents of this one out there, but this one fits on one CD and has english subtitles in an .srt file

___________________________________________________

Since his mother wants to watch TV, Axel, a young auto-mechanic, must recover her remote control, accidentally taken by his punk sister Maja. During his quest, he becomes involved in the conflict between Moli, the liquor smuggler, and Aggi, a night club owner who wants to be Iceland's first mafia boss. (From IMDB)

Format                           : AVI
Format/Info                      : Audio Video Interleave
File size                        : 699 MiB
Duration                         : 1h 18mn
Overal bit rate                  : 1247 Kbps
Writing application              : Nandub v1.0rc2
Writing library                  : Nandub build 1853/release

Video
Format                           : MPEG-4 Visual
Codec ID                         : DIV3
Codec ID/Hint                    : DivX 3 Low
Duration                         : 1h 18mn
Bit rate                         : 1062 Kbps
Width                            : 544 pixels
Height                           : 336 pixels
Display aspect ratio             : 1.619
Frame rate                       : 25.000 fps
Resolution                       : 24 bits
Bits/(Pixel*Frame)               : 0.232
Stream size                      : 595 MiB

Audio
Format                           : MPEG Audio
Format version                   : Version 1
Format profile                   : Layer 3
Codec ID                         : 55
Codec ID/Hint                    : MP3
Duration                         : 1h 18mn
Bit rate mode                    : Variable
Bit rate                         : 172 Kbps
Channel(s)                       : 2 channels
Sampling rate                    : 48.0 KHz
Resolution                       : 16 bits
Stream size                      : 96.7 MiB


Spoken language : Icelandic
Subtitles       : English

Screeners : 
http://imageshack.us/photo/my-images/13/bscap0002rc.jpg/ 
http://imageshack.us/photo/my-images/823/bscap0008zu.jpg/ 
http://imageshack.us/photo/my-images/859/bscap0009o.jpg/ 
http://imageshack.us/photo/my-images/827/bscap0010c.jpg/ 
http://imageshack.us/photo/my-images/856/bscap0011t.jpg/

***************************************************

    Freakyflicks is a free and open community dedicated to preserving and sharing cinematic art in the digital era. Our goal is to disseminate such works of art to the widest audience possible through the channels provided by P2P technology.

        The Freakyflicks collection is limited to those films that have played an exceptional role in the history of cinema and its progression in becoming a great art. Films that are usually described as classic, cult, arthouse and avant-garde.

        If you have films that fit this description feel free to share them and participate in our community. All you need do is include this tag in your upload and join us at the forum to announce your release.

        https://board.freakyflicks.org/index.php

        'If we all seed just 1:1, give at least what we take, this torrent will NEVER DIE